<svg xmlns="http://www.w3.org/2000/svg" width="40" height="33.236" viewBox="0 0 40 33.236">
    <g>
        <g>
            <g>
                <path d="M180.129 93.2h-3.075a.408.408 0 0 1-.4-.414V65.715a.408.408 0 0 1 .4-.414h3.068a.574.574 0 0 0 0-1.147h-3.068a1.54 1.54 0 0 0-1.516 1.56v27.073a1.54 1.54 0 0 0 1.516 1.56h3.075a.574.574 0 0 0 0-1.147z" transform="translate(40 -43.292) rotate(90) translate(53.666 4.904) translate(-175.538 -64.155)"/>
            </g>
        </g>
        <g>
            <g>
                <path d="M269.271 64.156h-3.363a.574.574 0 0 0 0 1.147h3.363a.408.408 0 0 1 .4.414v27.071a.408.408 0 0 1-.4.414h-3.356a.574.574 0 0 0 0 1.147h3.356a1.54 1.54 0 0 0 1.516-1.56V65.716a1.54 1.54 0 0 0-1.516-1.56z" transform="translate(40 -43.292) rotate(90) translate(60.716 4.904) translate(-265.351 -64.156)"/>
            </g>
        </g>
        <g>
            <g>
                <path d="M74.834 15.45a1.7 1.7 0 0 0 1.694-1.694v-1.508a1.7 1.7 0 0 0-1.694-1.694h-3.626v-2.1h3.626a1.7 1.7 0 0 0 1.694-1.694V5.249a1.7 1.7 0 0 0-1.694-1.694h-3.626V2.208A2.21 2.21 0 0 0 69 0H50.819a2.21 2.21 0 0 0-2.208 2.208v1.347h-3.625a1.7 1.7 0 0 0-1.694 1.694v1.508a1.7 1.7 0 0 0 1.694 1.694h3.626v2.1h-3.626a1.7 1.7 0 0 0-1.694 1.694v1.508a1.7 1.7 0 0 0 1.694 1.694h3.626v2.1h-3.626a1.7 1.7 0 0 0-1.694 1.694v1.508a1.7 1.7 0 0 0 1.694 1.694h3.626v2.1h-3.626a1.7 1.7 0 0 0-1.694 1.694v1.508a1.7 1.7 0 0 0 1.694 1.694h3.626v2.1h-3.626a1.7 1.7 0 0 0-1.694 1.694v1.508a1.7 1.7 0 0 0 1.694 1.694h3.626v1.348A2.21 2.21 0 0 0 50.819 40H69a2.21 2.21 0 0 0 2.208-2.208v-1.347h3.626a1.7 1.7 0 0 0 1.694-1.694v-1.508a1.7 1.7 0 0 0-1.694-1.694h-3.626v-2.1h3.626a1.7 1.7 0 0 0 1.694-1.694v-1.511a1.7 1.7 0 0 0-1.694-1.694h-3.626v-2.1h3.626a1.7 1.7 0 0 0 1.694-1.694v-1.51a1.7 1.7 0 0 0-1.694-1.694h-3.626v-2.1zM71.208 4.694h3.626a.556.556 0 0 1 .555.555v1.508a.556.556 0 0 1-.555.555h-3.626zm0 7h3.626a.556.556 0 0 1 .555.555v1.508a.556.556 0 0 1-.555.555h-3.626zm-22.6 23.614h-3.622a.556.556 0 0 1-.555-.555v-1.51a.556.556 0 0 1 .555-.555h3.626v2.619zm0-7h-3.622a.556.556 0 0 1-.555-.555v-1.509a.556.556 0 0 1 .555-.555h3.626v2.619zm0-7h-3.622a.556.556 0 0 1-.555-.555v-1.507a.556.556 0 0 1 .555-.555h3.626v2.619zm0-7h-3.622a.556.556 0 0 1-.555-.555v-1.505a.556.556 0 0 1 .555-.555h3.626v2.619zm0-7h-3.622a.556.556 0 0 1-.555-.555V5.249a.556.556 0 0 1 .555-.555h3.626v2.619zm21.458 30.48A1.07 1.07 0 0 1 69 38.861H50.819a1.07 1.07 0 0 1-1.069-1.069V2.208a1.07 1.07 0 0 1 1.069-1.069H69a1.07 1.07 0 0 1 1.069 1.069zm4.764-5.1a.556.556 0 0 1 .555.555v1.508a.556.556 0 0 1-.555.555h-3.622v-2.619zm0-7a.556.556 0 0 1 .555.555v1.508a.556.556 0 0 1-.555.555h-3.622v-2.617zm0-7a.556.556 0 0 1 .555.555v1.508a.556.556 0 0 1-.555.555h-3.622v-2.615z" transform="translate(40 -43.292) rotate(90) translate(43.292) translate(-43.292)"/>
            </g>
        </g>
        <g>
            <g>
                <path d="M228.88 293.845a.293.293 0 0 0 .222-.284v-.433a.293.293 0 0 0-.385-.278q-.892.3-2.083.671a1.177 1.177 0 0 0-.2-.315 1 1 0 0 0-.242-.2 1.132 1.132 0 0 0-.284-.112 1.834 1.834 0 0 0-.285-.052q-.125-.011-.284-.011a1.578 1.578 0 0 0-.628.113.971.971 0 0 0-.417.332 1.5 1.5 0 0 0-.227.509 2.806 2.806 0 0 0-.072.674v.83a.293.293 0 0 0 .293.293h4.519a.293.293 0 0 0 .293-.293v-.446a.293.293 0 0 0-.293-.293h-2.058v-.17zm-2.759.7h-1.367v-.345a.249.249 0 0 1 .075-.183.429.429 0 0 1 .193-.108 1.592 1.592 0 0 1 .214-.045 1.43 1.43 0 0 1 .187-.013 1.278 1.278 0 0 1 .193.016 1.52 1.52 0 0 1 .224.054.456.456 0 0 1 .2.123.289.289 0 0 1 .079.2z" transform="translate(40 -43.292) rotate(90) translate(57.466 22.914) translate(-223.997 -292.826)"/>
            </g>
        </g>
        <g>
            <g>
                <path d="M228.909 246.471a.24.24 0 0 0 .194-.235v-.524a.239.239 0 0 0-.29-.234l-4.626 1a.24.24 0 0 0-.189.234v.527a.239.239 0 0 0 .189.234l4.626 1a.24.24 0 0 0 .29-.234v-.527a.24.24 0 0 0-.2-.236l-.9-.163v-.667zm-1.533.768l-1.895-.269 1.895-.258z" transform="translate(40 -43.292) rotate(90) translate(57.466 19.212) translate(-223.998 -245.472)"/>
            </g>
        </g>
        <g>
            <g>
                <path d="M228.926 191.3l-3.437-.022 3.466-.6a.177.177 0 0 0 .147-.175v-.47a.177.177 0 0 0-.15-.175q-.559-.088-1.646-.274-1.242-.213-1.8-.3l3.414-.022a.178.178 0 0 0 .176-.177v-.406a.177.177 0 0 0-.177-.177h-4.75a.177.177 0 0 0-.177.177v.867a.177.177 0 0 0 .147.175l3.256.562-3.254.521a.177.177 0 0 0-.149.175v.908a.177.177 0 0 0 .177.177h4.75a.178.178 0 0 0 .178-.177v-.409a.177.177 0 0 0-.171-.178z" transform="translate(40 -43.292) rotate(90) translate(57.466 14.758) translate(-223.997 -188.5)"/>
            </g>
        </g>
    </g>
</svg>
