<svg xmlns="http://www.w3.org/2000/svg" width="13.75" height="20" viewBox="0 0 13.75 20">
    <path fill="#6c6c76" d="M3.752 17.748a1.25 1.25 0 0 0 .209.691l.668 1A1.25 1.25 0 0 0 5.67 20h2.41a1.25 1.25 0 0 0 1.041-.558l.668-1a1.25 1.25 0 0 0 .211-.694v-1.5H3.75v1.5zM0 6.875A6.837 6.837 0 0 0 1.7 11.4a11.225 11.225 0 0 1 2.041 3.57V15H10v-.03a11.225 11.225 0 0 1 2.048-3.57A6.873 6.873 0 1 0 0 6.875zM6.875 3.75A3.129 3.129 0 0 0 3.75 6.875a.625.625 0 1 1-1.25 0A4.38 4.38 0 0 1 6.875 2.5a.625.625 0 0 1 0 1.25z" transform="translate(0 0)"/>
</svg>
