<svg xmlns="http://www.w3.org/2000/svg" width="58" height="66" viewBox="0 0 58 66">
    <defs>
        <clipPath id="clip-path">
            <path id="Rectangle_1738" fill="#fff" stroke="#707070" d="M0 0H58V66H0z" transform="translate(1234 3)"/>
        </clipPath>
        <style>
            .cls-3,.cls-4{fill:#fff}.cls-3{font-size:14px;font-family:NotoSerif-Bold,Noto Serif;font-weight:700;letter-spacing:-.048em}.cls-5{fill:none;stroke:#fff;stroke-width:.25px}
        </style>
    </defs>
    <g id="Mask_Group_3" clip-path="url(#clip-path)" transform="translate(-1234 -3)">
        <g id="facecup_" transform="translate(847 -640)">
            <text id="FA" class="cls-3" transform="translate(370 693)">
                <tspan x="-17.587" y="15">FA</tspan>
            </text>
            <text id="CECUP" class="cls-3" transform="translate(356 693)">
                <tspan x="-44.548" y="15">CECUP</tspan>
            </text>
        </g>
        <g id="facecup_logo" transform="translate(928.384 -449.263)">
            <g id="trophy" transform="translate(321.131 482.144)">
                <g id="Group_58" transform="translate(0 0)">
                    <g id="Group_57">
                        <path id="Path_2822" d="M80.637 150.873a8.311 8.311 0 0 1-.436 2.676l-.543 1.6h-1.807a3.366 3.366 0 0 0-3.362 3.362v1.627h-2.827a1.449 1.449 0 0 0-1.447 1.447v3.649a1.449 1.449 0 0 0 1.447 1.447h23.747a1.449 1.449 0 0 0 1.447-1.447v-3.649a1.449 1.449 0 0 0-1.447-1.447h-2.827v-1.627a3.366 3.366 0 0 0-3.362-3.362h-1.806l-.543-1.6a8.307 8.307 0 0 1-.437-2.676c0-1.508-5.797-1.509-5.797 0zM95.3 161.691v3.436H71.769v-3.436zm-6.08-4.991a1.811 1.811 0 0 1 1.808 1.809v1.627H76.043v-1.627a1.811 1.811 0 0 1 1.808-1.809zm-3.82-2.652l.373 1.1H81.3l.374-1.1a9.86 9.86 0 0 0 .519-3.175c0-1.528 2.69-1.528 2.69 0a9.861 9.861 0 0 0 .519 3.175z" class="cls-4" transform="translate(-70.215 -149.727)"/>
                    </g>
                </g>
            </g>
            <path id="person" d="M360.256 512.28l-.449-2 2.435-.226 2.469-4.625 2.19-2.4.717-2.494-.358-1.179-.358-.725-.319-6.03-.358-.907-.368-3.059-.139-.159-.834-.448-1.155-.565-1.082-.27-2.188-.393h-1.942l-2.065.393-2.335 1.008-2.637 1.625-.863 1.493-.471 1.282v5.558l-.33.912-.448.885v.579l.448 2.224 1.979 2.307.448.365.683 1.245 1.866 3.034 2.009.722-.364 1.849-.605.529-2.363-2.379-2.542-3.246-.59-.8-1.794-2.9-1.465-1.533-.256-2.282a5.764 5.764 0 0 1 .479-.863c.319-.479.8-1.054.8-1.054l.22-4.225.831-3.707 1.779-2.632 1.832-1.138 3.237-1.213 2.3-.479 4.154.479 2.255.548 1.872 1.262 1.4 1.13.342 1.874.218 1.321v2.141l.383 2.3.176 2.742.758.912.32 2.424a6.876 6.876 0 0 1-.639 1.265 4.613 4.613 0 0 1-1.214 1.132l-1.067 1.541-1.4 1.754-.974 2-.707 1.243-3.333 2.227z" class="cls-4" transform="translate(-23.929 -27.977)"/>
            <g id="edge" transform="translate(316.616 452.263)">
                <path id="Path_2823" d="M321.208 281.659h-4.59v4.309h-1.593v-5.808h6.183z" class="cls-4" transform="translate(-314.932 -280.16)"/>
                <path id="Path_2824" d="M6.183 1.5h-4.59v4.308H0V0h6.183z" class="cls-4" transform="translate(36.286 36.324) rotate(180)"/>
                <path id="Path_2825" d="M6.183 1.5h-4.59v4.308H0V0h6.183z" class="cls-4" transform="translate(36.203 0.027) rotate(90)"/>
                <path id="Path_2826" d="M6.183 1.5h-4.59v4.308H0V0h6.183z" class="cls-4" transform="translate(0 36.22) rotate(-90)"/>
            </g>
            <g id="lines" transform="translate(325.614 458.742)">
                <path id="Line_38" d="M9.032 0L0 4.37" class="cls-5" transform="translate(1.165)"/>
                <path id="Line_39" d="M5.827 18.938L0 0" class="cls-5" transform="translate(1.311 4.37)"/>
                <path id="Line_40" d="M3.205 0L0 23.309" class="cls-5" transform="translate(6.847)"/>
                <path id="Line_41" d="M9.615 3.496L0 0" class="cls-5" transform="translate(3.205 19.812)"/>
                <path id="Line_42" d="M11.946 0L0 0.874" class="cls-5" transform="translate(3.205 18.938)"/>
                <path id="Line_43" d="M2.622 23.309L0 0" class="cls-5" transform="translate(10.197)"/>
                <path id="Line_44" d="M2.039 0L0 7.284" class="cls-5" transform="translate(15.151 11.654)"/>
                <path id="Line_45" d="M13.402 9.615L0 0" class="cls-5" transform="translate(0.583 11.654)"/>
                <path id="Line_46" d="M0 6.118L17.19 0" class="cls-5" transform="translate(0 7.867)"/>
                <path id="Line_47" d="M16.316 0L0 12.237" class="cls-5" transform="translate(0 1.748)"/>
                <path id="Line_48" d="M0 0L15.733 3.496" class="cls-5" transform="translate(1.457 4.37)"/>
                <path id="Line_49" d="M0 0L16.316 0.291" class="cls-5" transform="translate(0.583 11.363)"/>
                <path id="Line_50" d="M0 7.867L13.694 0" class="cls-5" transform="translate(3.496 11.654)"/>
                <path id="Line_51" d="M15.151 0L0 2.622" class="cls-5" transform="translate(1.165 1.748)"/>
                <path id="Line_52" d="M0 2.331L17.19 0" class="cls-5" transform="translate(0 11.654)"/>
                <path id="Line_53" d="M0 0L3.496 3.205" class="cls-5" transform="translate(1.165 4.079)"/>
                <path id="Line_54" d="M0 4.079L3.788 0" class="cls-5" transform="translate(0.874 7.284)"/>
                <path id="Line_55" d="M0 0L13.111 0.874" class="cls-5" transform="translate(4.953 7.284)"/>
                <path id="Line_56" d="M5.244 0L0 6.993" class="cls-5" transform="translate(4.662 0.291)"/>
                <path id="Line_57" d="M7.575 0L0 5.244" class="cls-5" transform="translate(3.205 14.276)"/>
                <path id="Line_58" d="M10.78 0.291L0 0" class="cls-5" transform="translate(0 13.839)"/>
                <path id="Line_59" d="M0 2.622L6.41 0" class="cls-5" transform="translate(10.78 11.654)"/>
                <path id="Line_60" d="M4.079 4.37L0 0" class="cls-5" transform="translate(11.072 14.276)"/>
                <path id="Line_61" d="M0 2.039L6.993 0" class="cls-5" transform="translate(6.993 20.978)"/>
                <path id="Line_62" d="M3.496 0L0 8.741" class="cls-5" transform="translate(7.284 14.276)"/>
                <path id="Line_63" d="M5.827 0L0 6.118" class="cls-5" transform="translate(11.072 7.867)"/>
                <path id="Line_64" d="M0 0L6.118 6.993" class="cls-5" transform="translate(4.953 7.284)"/>
            </g>
            <g id="dots" transform="translate(325.468 458.596)">
                <circle id="Ellipse_16" cx=".291" cy=".291" r=".291" class="cls-4" transform="translate(9.906)"/>
                <circle id="Ellipse_17" cx=".291" cy=".291" r=".291" class="cls-4" transform="translate(16.025 1.748)"/>
                <circle id="Ellipse_18" cx=".291" cy=".291" r=".291" class="cls-4" transform="translate(16.899 11.654)"/>
                <circle id="Ellipse_19" cx=".291" cy=".291" r=".291" class="cls-4" transform="translate(14.859 18.647)"/>
                <circle id="Ellipse_20" cx=".291" cy=".291" r=".291" class="cls-4" transform="translate(12.528 23.017)"/>
                <circle id="Ellipse_21" cx=".291" cy=".291" r=".291" class="cls-4" transform="translate(13.694 20.978)"/>
                <circle id="Ellipse_22" cx=".291" cy=".291" r=".291" class="cls-4" transform="translate(6.993 23.017)"/>
                <circle id="Ellipse_23" cx=".291" cy=".291" r=".291" class="cls-4" transform="translate(3.205 19.521)"/>
                <circle id="Ellipse_24" cx=".291" cy=".291" r=".291" class="cls-4" transform="translate(0 13.694)"/>
                <circle id="Ellipse_25" cx=".291" cy=".291" r=".291" class="cls-4" transform="translate(0.583 11.363)"/>
                <circle id="Ellipse_26" cx=".291" cy=".291" r=".291" class="cls-4" transform="translate(1.165 4.079)"/>
                <circle id="Ellipse_27" cx=".291" cy=".291" r=".291" class="cls-4" transform="translate(4.662 6.993)"/>
                <circle id="Ellipse_28" cx=".291" cy=".291" r=".291" class="cls-4" transform="translate(10.78 13.985)"/>
                <circle id="Ellipse_29" cx=".291" cy=".291" r=".291" class="cls-4" transform="translate(16.899 7.867)"/>
            </g>
        </g>
    </g>
</svg>
