<svg xmlns="http://www.w3.org/2000/svg" width="24" height="24" viewBox="0 0 24 24">
    <defs>
        <clipPath id="clip-path">
            <path id="Rectangle_12" fill="#fff" stroke="#707070" d="M0 0H24V24H0z"/>
        </clipPath>
        <style>
            .cls-3{fill:#6c6c76}
        </style>
    </defs>
    <g id="email_icon" clip-path="url(#clip-path)">
        <g id="name_en" transform="translate(0 1.677)">
            <path id="Path_1331" d="M21.24 60.66H2.749A2.751 2.751 0 0 1 0 57.911V45.417a2.751 2.751 0 0 1 2.749-2.749h6a.75.75 0 1 1 0 1.5h-6A1.251 1.251 0 0 0 1.5 45.417v12.494a1.251 1.251 0 0 0 1.249 1.249H21.24a1.251 1.251 0 0 0 1.249-1.249V45.417a1.251 1.251 0 0 0-1.249-1.249h-6a.75.75 0 1 1 0-1.5h6a2.751 2.751 0 0 1 2.749 2.749v12.494a2.751 2.751 0 0 1-2.749 2.749zm0 0" class="cls-3" transform="translate(0 -40.669)"/>
            <path id="Path_1332" d="M176.915 5.5h-4.5a1.751 1.751 0 0 1-1.749-1.749v-2A1.751 1.751 0 0 1 172.417 0h4.5a1.751 1.751 0 0 1 1.749 1.749v2a1.751 1.751 0 0 1-1.751 1.751zm-4.5-4a.25.25 0 0 0-.25.25v2a.25.25 0 0 0 .25.25h4.5a.25.25 0 0 0 .25-.25v-2a.25.25 0 0 0-.25-.25zm0 0" class="cls-3" transform="translate(-162.672)"/>
            <path id="Path_1333" d="M109.167 154.33a2.5 2.5 0 1 1 2.5-2.5 2.5 2.5 0 0 1-2.5 2.5zm0-3.5a1 1 0 1 0 1 1 1 1 0 0 0-1-.999zm0 0" class="cls-3" transform="translate(-101.67 -142.335)"/>
            <path id="Path_1334" d="M72.246 281.33a.75.75 0 0 1-.75-.75v-.5a1.251 1.251 0 0 0-1.249-1.249h-3.5a1.251 1.251 0 0 0-1.249 1.249v.5a.75.75 0 1 1-1.5 0v-.5a2.751 2.751 0 0 1 2.749-2.749h3.5a2.751 2.751 0 0 1 2.753 2.75v.5a.75.75 0 0 1-.754.749zm0 0" class="cls-3" transform="translate(-61.001 -264.338)"/>
            <path id="Path_1335" d="M304.915 161.5h-5.5a.75.75 0 1 1 0-1.5h5.5a.75.75 0 0 1 0 1.5zm0 0" class="cls-3" transform="translate(-284.674 -152.503)"/>
            <path id="Path_1336" d="M304.915 246.831h-5.5a.75.75 0 1 1 0-1.5h5.5a.75.75 0 0 1 0 1.5zm0 0" class="cls-3" transform="translate(-284.674 -233.837)"/>
            <path id="Path_1337" d="M304.915 332.167h-5.5a.75.75 0 0 1 0-1.5h5.5a.75.75 0 0 1 0 1.5zm0 0" class="cls-3" transform="translate(-284.674 -315.175)"/>
            <text id="EN" fill="#6c6c76" font-family="NotoSerif-Bold, Noto Serif" font-size="3px" font-weight="700" letter-spacing="-0.048em" transform="translate(13.994 3.823)">
                <tspan x="-4.179" y="0">EN</tspan>
            </text>
        </g>
    </g>
</svg>
