<svg xmlns="http://www.w3.org/2000/svg" width="24" height="24" viewBox="0 0 24 24">
    <defs>
        <clipPath id="clip-path">
            <path id="Rectangle_11" fill="#fff" stroke="#707070" d="M0 0H24V24H0z"/>
        </clipPath>
        <style>
            .cls-3{fill:#6c6c76}
        </style>
    </defs>
    <g id="password_icon" clip-path="url(#clip-path)">
        <g id="key-outline" transform="translate(24 -7) rotate(90)">
            <g id="Group_41" transform="translate(12.473)">
                <path id="Path_1341" d="M23.266 8.722a2.069 2.069 0 1 0-2.07 2.07 2.072 2.072 0 0 0 2.07-2.07zM21.2 10.03a1.308 1.308 0 1 1 1.3-1.308 1.31 1.31 0 0 1-1.3 1.308z" class="cls-3" transform="translate(-15.357 -2.803)"/>
                <path id="Path_1342" d="M19.985 11.429a5.841 5.841 0 1 0-3.607-.086V24h3.607v-1.329h3.99v-3.387h-3.99v-.545h3.99v-3.386h-3.99v-3.924zm3.051 4.863V17.8h-3.99v2.422h3.99v1.509h-3.99v1.329h-1.729V10.645l-.341-.1a4.9 4.9 0 1 1 2.434.061l-.364.084v5.6z" class="cls-3" transform="translate(-12.473)"/>
            </g>
        </g>
    </g>
</svg>
