<svg xmlns="http://www.w3.org/2000/svg" width="16.496" height="24" viewBox="0 0 16.496 24">
    <path fill="#ececec" d="M10.07 0A9.082 9.082 0 0 0 2 4.267a1.126 1.126 0 0 0 .243 1.541l2.024 1.533a1.125 1.125 0 0 0 1.559-.194C7 5.676 7.871 4.829 9.7 4.829c1.442 0 3.226.928 3.226 2.326 0 1.057-.873 1.6-2.3 2.4-1.66.931-3.858 2.09-3.858 4.988V15A1.125 1.125 0 0 0 7.9 16.125h3.4A1.125 1.125 0 0 0 12.423 15v-.271c0-2.009 5.872-2.093 5.872-7.529C18.3 3.106 14.048 0 10.07 0zM9.6 17.506a3.247 3.247 0 1 0 3.247 3.247A3.251 3.251 0 0 0 9.6 17.506z" transform="translate(-1.8)"/>
</svg>
