<svg xmlns="http://www.w3.org/2000/svg" width="23.364" height="23.741" viewBox="0 0 23.364 23.741">
    <path fill="#ececec" d="M19.027 2.548a11.68 11.68 0 1 1-13.575 0 1.134 1.134 0 0 1 1.648.368l.744 1.324a1.13 1.13 0 0 1-.31 1.46 7.913 7.913 0 1 0 9.416 0 1.124 1.124 0 0 1-.306-1.456l.744-1.324a1.129 1.129 0 0 1 1.639-.367zm-4.9 9.887V1.131A1.128 1.128 0 0 0 13 0h-1.509a1.128 1.128 0 0 0-1.131 1.131v11.305a1.128 1.128 0 0 0 1.131 1.131H13a1.128 1.128 0 0 0 1.129-1.131z" transform="translate(-0.562)"/>
</svg>
