<svg xmlns="http://www.w3.org/2000/svg" width="20.098" height="24" viewBox="0 0 20.098 24">
    <g>
        <path fill="#ececec" d="M19.027 30.275A85.571 85.571 0 0 1 9 29.915s.392-6.337 3.131-7.476 4.389-1.563 4.358-1.586c.024-.014-.023.013 0 0l.071-1.748a7.944 7.944 0 0 1-2.063-3.58 2.915 2.915 0 0 1-.78-1.932 2.745 2.745 0 0 1 .38-1.374c.162-3.573 2.309-5.937 4.935-5.937s4.774 2.364 4.935 5.937a2.738 2.738 0 0 1 .38 1.374 2.915 2.915 0 0 1-.78 1.932 7.927 7.927 0 0 1-2.06 3.575v1.706c.024.013.047.028.07.042.952.607 1.622.445 4.36 1.586s3.129 7.476 3.129 7.476a86.019 86.019 0 0 1-10.039.36m-2.537-9.422l1.037-.2c-.976 0 1.506 8.588 1.506 9.62l10.033-.487c0 1.033-21.041.127-20.065.127H9l7.489-9.062z" transform="translate(-1324.938 -184.187) translate(1315.97 177.905)"/>
    </g>
</svg>
