<svg xmlns="http://www.w3.org/2000/svg" width="22.595" height="18.884" viewBox="0 0 22.595 18.884">
    <defs>
        <style>
            .cls-1{fill:#ececec}
        </style>
    </defs>
    <g id="static" transform="translate(-4.524 24.884) rotate(-90)">
        <path id="Path_2800" d="M6.721 2C6.323 2 6 2.46 6 3.027v20.541c0 .567.323 1.027.721 1.027s.721-.46.721-1.027V3.027C7.441 2.46 7.119 2 6.721 2z" class="cls-1" transform="translate(0 2.524)"/>
        <path id="Path_2801" d="M15.1 11.731h8.84c.61 0 1.105-.321 1.105-.716v-4.3c0-.4-.495-.716-1.105-.716H15.1c-.605.001-1.1.322-1.1.717v4.3c0 .394.495.715 1.1.715z" class="cls-1" transform="translate(-5.039 -1.476)"/>
        <path id="Path_2803" d="M15.1 11.49h8.84c.61 0 1.1-.307 1.1-.686V6.686c0-.379-.495-.686-1.1-.686H15.1c-.61 0-1.1.307-1.1.686V10.8c0 .383.495.69 1.1.69z" class="cls-1" transform="translate(-5.039 15.628)"/>
        <path id="Path_2802" d="M28.785 26H15.137c-.628 0-1.137.365-1.137.816v4.895c0 .451.509.816 1.137.816h13.648c.628 0 1.137-.365 1.137-.816v-4.895c.001-.451-.508-.816-1.137-.816z" class="cls-1" transform="translate(-5.039 -13.442)"/>
    </g>
</svg>
