<svg xmlns="http://www.w3.org/2000/svg" width="17.785" height="22.217" viewBox="0 0 17.785 22.217">
    <defs>
        <style>
            .cls-1{fill:#ececec}
        </style>
    </defs>
    <g id="support" transform="translate(-119.108 -8.183)">
        <path id="Icon_metro-headphones" d="M19.095 8.977c0-3.893-3.7-7.049-8.262-7.049S2.571 5.084 2.571 8.977a6.118 6.118 0 0 0 .495 2.407 2.735 2.735 0 0 0-.495 1.558 3.291 3.291 0 0 0 3.1 3.052v-6.1a4 4 0 0 0-1.416.446A4.936 4.936 0 0 1 4.12 9.2c0-3.163 3.006-5.727 6.713-5.727s6.713 2.561 6.713 5.727a4.941 4.941 0 0 1-.133 1.138A4 4 0 0 0 16 9.889v6.1a3.291 3.291 0 0 0 3.1-3.052 2.735 2.735 0 0 0-.495-1.558 6.119 6.119 0 0 0 .495-2.407z" class="cls-1" transform="translate(117.13 6.255)"/>
        <path id="support-2" d="M14.892 16.46c2.457 0 4.446-3.557 4.446-6.014a4.446 4.446 0 0 0-8.892 0c0 2.454 1.99 6.014 4.446 6.014zm0 .655C11.924 17.115 6 18.6 6 21.562v2.223h17.785v-2.223c0-2.962-5.925-4.447-8.893-4.447z" class="cls-1" transform="translate(113.108 6.615)"/>
    </g>
</svg>
